<svg width="179" height="88" xmlns="http://www.w3.org/2000/svg" viewBox="0 0 179 88" class="logo-tw">
<title>Trage Wegen</title> 
<g fill="#958DD8" fill-rule="evenodd">
<polygon points="22.026 38.686 27.494 38.686 27.494 6.19 37.387 6.19 37.387 1.032 6.974 1.032 6.974 6.19 22.026 6.19"></polygon> <path d="M47.4510014,17.0218792 L47.4510014,6.18984169 L55.7042473,6.18984169 C58.7986735,6.18984169 61.6352824,8.25361686 61.6352824,11.6058604 C61.6352824,14.9593405 58.7986735,17.0218792 55.7042473,17.0218792 L47.4510014,17.0218792 Z M67.8253714,38.6859541 L67.8253714,37.6546848 L55.0847438,22.1794623 C61.2748328,22.1794623 67.0519194,18.0537667 67.0519194,11.6058604 C67.0519194,4.90075504 61.6352824,1.03225855 55.44643,1.03225855 L42.0349827,1.03225855 L42.0349827,38.6859541 L47.4510014,38.6859541 L47.4510014,22.1794623 L48.4816525,22.1794623 L61.6865986,38.6859541 L67.8253714,38.6859541 Z"></path> <polygon points="93.229 28.886 96.582 38.686 101.998 38.686 89.102 1.032 83.428 1.032 70.533 38.686 75.949 38.686 79.251 28.886 81.004 23.728 86.265 8.253 91.475 23.728"></polygon> <path d="M121.332051,39.718089 C131.648453,39.718089 139.901081,31.7226604 140.417334,22.4381452 L135.516332,17.5377611 L115.91665,17.5377611 L115.91665,22.6959625 L135.104566,22.6959625 C134.588931,29.6595035 128.863779,34.5598876 121.332051,34.5598876 C112.820987,34.5598876 107.457521,28.3704169 107.457521,19.9106698 C107.457521,11.3482904 112.820987,5.15820141 121.332051,5.15820141 C126.38762,5.15820141 130.410683,7.3246089 132.886224,10.8839719 L136.599535,7.17004215 C132.989474,2.78529274 127.779957,0 121.590486,0 C110.242196,0 101.989568,8.76888056 101.989568,19.8593536 C101.989568,30.9485902 110.242196,39.718089 121.332051,39.718089"></path> <polygon points="172.878 33.528 150.471 33.528 150.471 22.18 167.235 22.18 167.235 17.022 150.471 17.022 150.471 6.19 167.75 6.19 167.75 1.032 145.055 1.032 145.055 38.686 172.878 38.686"></polygon> <polygon points="31.206 76.908 24.294 56.379 18.569 56.379 11.605 76.96 5.467 48.642 0 48.642 8.253 86.296 13.669 86.296 21.406 64.477 29.143 86.296 34.559 86.296 42.812 48.642 37.345 48.642"></polygon> <polygon points="47.449 86.296 75.259 86.296 75.259 81.138 52.866 81.138 52.866 69.79 69.629 69.79 69.629 64.632 52.866 64.632 52.866 53.8 70.145 53.8 70.145 48.642 47.449 48.642"></polygon> <path d="M90.2738417,65.1479663 L90.2738417,70.3055494 L109.461757,70.3055494 C108.946123,77.2690904 103.220352,82.1700927 95.6898604,82.1700927 C87.1787972,82.1700927 81.8140946,75.9800037 81.8140946,67.5202567 C81.8140946,58.9584956 87.1787972,52.7677883 95.6898604,52.7677883 C100.744811,52.7677883 104.767874,54.9341958 107.243415,58.4935588 L110.957345,54.779629 C107.346666,50.3954979 102.13653,47.6102052 95.9476778,47.6102052 C84.5993874,47.6102052 76.347378,56.3784674 76.347378,67.4683222 C76.347378,78.558177 84.5993874,87.3276759 95.6898604,87.3276759 C106.005645,87.3276759 114.258891,79.3322473 114.774526,70.0477321 L109.87476,65.1479663 L90.2738417,65.1479663 Z"></path> <polygon points="118.892 86.296 146.707 86.296 146.707 81.138 124.308 81.138 124.308 69.79 141.072 69.79 141.072 64.632 124.308 64.632 124.308 53.8 141.588 53.8 141.588 48.642 118.892 48.642"></polygon>
<polygon points="173.385 48.642 173.385 76.495 157.344 48.642 151.412 48.642 151.412 86.296 156.777 86.296 156.777 57.926 172.818 86.296 178.75 86.296 178.75 48.642"></polygon>
</g></svg>