<svg version="1.1" id="prefix__Laag_1" x="0" y="0" xml:space="preserve" width="69.701" height="74.1" xmlns="http://www.w3.org/2000/svg"><style id="style2">.outIcon{fill:#fff}</style><g id="prefix__g22" transform="translate(-39.8 -16.2)"><path d="M74.7 16.2c-24.9 0-34.9 13.1-34.9 30.2 0 7.5 1.9 14 5.9 19.1C57.8 82.4 73.1 89.8 73 89.8c-.1 0 .9.5 1.6.5.7 0 1.5-.5 1.6-.5.1 0 15.2-7.4 27.4-24.3 3.9-5 5.9-11.6 5.9-19.1.1-17.1-10-30.2-34.8-30.2z" id="outerIcon" style="fill:#733900"/><g id="innerIcon"><path class="outIcon" id="prefix__polygon12" d="M56.9 34.9v-2.2l-1.5-1-1.4 1v2.2z"/><path class="outIcon" d="M93 60.7c0-.6 0-1.1-.9-1.1h-1.3v2.2h1.3c.9 0 .9-.5.9-1.1z" id="prefix__path14"/><path class="outIcon" d="M98.1 56.1h-4.8v-2.7c0-4.2-2.1-12.2-10.1-12.2-7.3 0-8.9 4.5-10.3 8.1-.2.4-.3.9-.5 1.3-.1.3-.2.6-.4 1-1.5 3.9-3.1 8.2-8.9 8.2-6.5 0-6.6-7.9-6.6-8.2v-10l4.9-3.6c.2-.1.2-.3.2-.5v-8.6s0-.4-.3-.4h-12c-.4 0-.4.4-.4.4v8.6c0 .2 0 .4.2.5l4.9 3.6v10c0 3.7 1.9 10.7 9 10.7 7.5 0 9.7-5.9 11.2-9.8.1-.3.2-.6.4-.9.2-.4.3-.9.5-1.3 1.3-3.5 2.4-6.5 7.9-6.5 7.6 0 7.7 9.3 7.7 9.7v2.7H86c-.4 0-.4.4-.4.4v11.9c0 .2.2.4.3.4h12c.2 0 .4-.2.4-.4v-12c.1 0 .1-.4-.2-.4zM54 36.3v2.1c0 .2-.1.3-.3.3h-.8c-.2 0-.3-.1-.3-.3v-6.2c0-.1 0-.2.1-.2l2.6-1.9c.1 0 .1-.1.2-.1s.1 0 .2.1l2.6 1.9c.1 0 .1.1.1.2v6.2c0 .2-.1.3-.3.3h-.8c-.2 0-.3-.1-.3-.3v-2.1zm38.6 30.5h-3c-.2 0-.3-.1-.3-.3v-8c0-.2.1-.3.3-.3h2.5c1.8 0 2.3 1.2 2.3 2.5 0 .6-.1 1.1-.4 1.6.6.5.8 1.3.8 2 .1 1.2-.4 2.5-2.2 2.5z" id="prefix__path16"/><path class="outIcon" d="M92.5 63.2h-1.8v2.2h1.8c.9 0 .9-.5.9-1.1 0-.6 0-1.1-.9-1.1z" id="prefix__path18"/></g></g></svg>