<svg width="179" height="88" xmlns="http://www.w3.org/2000/svg" class="logo-tw"><g fill="#958DD8" fill-rule="evenodd"><path d="M22.026 38.686h5.468V6.19h9.893V1.032H6.974V6.19h15.052zM47.451 17.022V6.19h8.253c3.095 0 5.931 2.064 5.931 5.416 0 3.353-2.836 5.416-5.93 5.416H47.45Zm20.374 21.664v-1.031l-12.74-15.476c6.19 0 11.967-4.125 11.967-10.573 0-6.705-5.417-10.574-11.606-10.574H42.035v37.654h5.416V22.179h1.03l13.206 16.507h6.138ZM93.229 28.886l3.353 9.8h5.416L89.102 1.032h-5.674L70.533 38.686h5.416l3.302-9.8 1.753-5.158 5.261-15.475 5.21 15.475zM121.332 39.718c10.316 0 18.57-7.995 19.085-17.28l-4.9-4.9h-19.6v5.158h19.188c-.516 6.964-6.241 11.864-13.773 11.864-8.511 0-13.874-6.19-13.874-14.65 0-8.562 5.363-14.752 13.874-14.752 5.056 0 9.079 2.167 11.554 5.726L136.6 7.17C132.99 2.785 127.78 0 121.59 0c-11.348 0-19.6 8.769-19.6 19.86 0 11.089 8.252 19.858 19.342 19.858M172.878 33.528h-22.407V22.18h16.764v-5.158h-16.764V6.19h17.279V1.032h-22.695v37.654h27.823zM31.206 76.908l-6.912-20.529h-5.725L11.605 76.96 5.467 48.642H0l8.253 37.654h5.416l7.737-21.819 7.737 21.819h5.416l8.253-37.654h-5.467zM47.449 86.296h27.81v-5.158H52.866V69.79h16.763v-5.158H52.866V53.8h17.279v-5.158H47.449zM90.274 65.148v5.158h19.188c-.516 6.963-6.242 11.864-13.772 11.864-8.511 0-13.876-6.19-13.876-14.65 0-8.562 5.365-14.752 13.876-14.752 5.055 0 9.078 2.166 11.553 5.726l3.714-3.714c-3.61-4.385-8.82-7.17-15.01-7.17-11.348 0-19.6 8.768-19.6 19.858s8.252 19.86 19.343 19.86c10.316 0 18.569-7.996 19.085-17.28l-4.9-4.9H90.274ZM118.892 86.296h27.815v-5.158h-22.399V69.79h16.764v-5.158h-16.764V53.8h17.28v-5.158h-22.696zM173.385 48.642v27.853l-16.041-27.853h-5.932v37.654h5.365v-28.37l16.041 28.37h5.932V48.642z"/></g></svg>