<svg width="112" height="166" xmlns="http://www.w3.org/2000/svg"><g fill="none"><g transform="translate(12 122)" fill="#000" opacity=".04"><ellipse cx="43.5" cy="22" rx="43.5" ry="22"/><ellipse cx="43.5" cy="22" rx="43.5" ry="22"/><ellipse cx="43.5" cy="22" rx="39.357" ry="20"/><ellipse cx="43.5" cy="22" rx="35.214" ry="18"/><ellipse cx="43.5" cy="22" rx="31.071" ry="16"/><ellipse cx="43.5" cy="22" rx="26.929" ry="14"/><ellipse cx="43.5" cy="22" rx="22.786" ry="12"/><ellipse cx="43.5" cy="22" rx="18.643" ry="10"/></g><path d="M112 55.915c0 23.09-28 55.915-50.815 86.979-3.042 4.141-7.328 4.141-10.37 0C28 111.83 0 79.617 0 55.914 0 25.035 25.072 0 56 0s56 25.034 56 55.915z" fill="#958DD8"/><path d="M56 0C25.072 0 0 25.028 0 55.901c0 23.697 28 55.902 50.815 86.958 3.11 4.235 7.328 4.14 10.37 0C84 111.803 112 78.985 112 55.901 112 25.028 86.928 0 56 0zm0 4.14c28.686 0 51.852 23.126 51.852 51.761 0 9.933-6.24 23.526-15.677 38.255-9.437 14.728-22.88 30.658-34.336 46.252A20.44 20.44 0 0 1 56 142.616a20.44 20.44 0 0 1-1.84-2.208c-11.498-15.653-23.402-31.445-33.354-46.107-9.953-14.661-16.658-28.24-16.658-38.4 0-28.635 23.166-51.76 51.852-51.76z" opacity=".25" fill="#000"/><g transform="translate(33 33)"><circle fill="#000" opacity=".25" cx="23" cy="23" r="23"/><circle fill="#FFF" cx="23" cy="23" r="23"/></g></g></svg>